<svg width="48" height="48" viewBox="0 0 48 48" fill="none" xmlns="http://www.w3.org/2000/svg">
<path d="M42 12.75C39.8127 12.7475 37.7157 11.8775 36.1691 10.3309C34.6225 8.78425 33.7525 6.68727 33.75 4.5C33.75 3.90326 33.5129 3.33097 33.091 2.90901C32.669 2.48705 32.0967 2.25 31.5 2.25H24C23.4033 2.25 22.831 2.48705 22.409 2.90901C21.9871 3.33097 21.75 3.90326 21.75 4.5V29.25C21.7496 29.7869 21.6052 30.3138 21.3318 30.7758C21.0585 31.2378 20.6661 31.618 20.1957 31.8767C19.7253 32.1354 19.1941 32.2632 18.6575 32.2466C18.1209 32.23 17.5985 32.0698 17.145 31.7826C16.6914 31.4954 16.3232 31.0917 16.0789 30.6137C15.8345 30.1357 15.7228 29.6009 15.7556 29.065C15.7883 28.5291 15.9643 28.0119 16.2651 27.5672C16.5659 27.1225 16.9805 26.7667 17.4656 26.5369C17.85 26.3542 18.1747 26.0663 18.4021 25.7066C18.6294 25.3468 18.75 24.9299 18.75 24.5044V16.5C18.7499 16.1713 18.6777 15.8465 18.5386 15.5487C18.3995 15.2509 18.1968 14.9871 17.9447 14.776C17.6927 14.5649 17.3975 14.4116 17.0799 14.3269C16.7623 14.2422 16.4299 14.2281 16.1063 14.2856C12.6408 14.9196 9.51264 16.7627 7.27875 19.4869C5.00396 22.2325 3.75627 25.6845 3.75 29.25C3.75 33.2282 5.33035 37.0436 8.1434 39.8566C10.9564 42.6696 14.7718 44.25 18.75 44.25C22.7282 44.25 26.5436 42.6696 29.3566 39.8566C32.1696 37.0436 33.75 33.2282 33.75 29.25V23.0006C36.3458 24.1591 39.1574 24.7553 42 24.75C42.5967 24.75 43.169 24.5129 43.591 24.091C44.0129 23.669 44.25 23.0967 44.25 22.5V15C44.25 14.4033 44.0129 13.831 43.591 13.409C43.169 12.9871 42.5967 12.75 42 12.75ZM39.75 20.0906C37.2447 19.7362 34.8635 18.7767 32.8125 17.295C32.4761 17.0534 32.0796 16.9094 31.6667 16.8787C31.2537 16.848 30.8403 16.9319 30.4719 17.1211C30.1036 17.3104 29.7946 17.5976 29.579 17.9511C29.3634 18.3047 29.2495 18.7109 29.25 19.125V29.25C29.25 32.0348 28.1438 34.7055 26.1746 36.6746C24.2055 38.6438 21.5348 39.75 18.75 39.75C15.9652 39.75 13.2945 38.6438 11.3254 36.6746C9.35625 34.7055 8.25 32.0348 8.25 29.25C8.25693 27.2411 8.82155 25.2735 9.88093 23.5666C10.9403 21.8596 12.4529 20.4804 14.25 19.5825V23.25C13.2273 24.0171 12.4176 25.0328 11.8978 26.2008C11.3781 27.3688 11.1655 28.6503 11.2803 29.9235C11.3951 31.1968 11.8335 32.4196 12.5538 33.4758C13.2741 34.5319 14.2524 35.3865 15.3959 35.9582C16.5394 36.5299 17.81 36.7999 19.0871 36.7424C20.3642 36.685 21.6055 36.302 22.693 35.6299C23.7805 34.9578 24.6781 34.0188 25.3007 32.9022C25.9232 31.7856 26.25 30.5284 26.25 29.25V6.75H29.4487C29.9134 9.31138 31.1486 11.67 32.9893 13.5107C34.83 15.3514 37.1886 16.5866 39.75 17.0513V20.0906Z" fill="#F3F4F6"/>
</svg>
