<svg width="48" height="48" viewBox="0 0 48 48" fill="none" xmlns="http://www.w3.org/2000/svg">
<path d="M24 15C22.22 15 20.4799 15.5278 18.9999 16.5168C17.5198 17.5057 16.3663 18.9113 15.6851 20.5558C15.0039 22.2004 14.8257 24.01 15.1729 25.7558C15.5202 27.5016 16.3774 29.1053 17.636 30.364C18.8947 31.6226 20.4984 32.4798 22.2442 32.8271C23.99 33.1743 25.7996 32.9961 27.4442 32.3149C29.0887 31.6337 30.4943 30.4802 31.4832 29.0001C32.4722 27.5201 33 25.78 33 24C32.9975 21.6138 32.0485 19.3261 30.3612 17.6388C28.6739 15.9515 26.3862 15.0025 24 15ZM24 28.5C23.11 28.5 22.24 28.2361 21.4999 27.7416C20.7599 27.2471 20.1831 26.5443 19.8425 25.7221C19.5019 24.8998 19.4128 23.995 19.5865 23.1221C19.7601 22.2492 20.1887 21.4474 20.818 20.818C21.4474 20.1887 22.2492 19.7601 23.1221 19.5865C23.995 19.4128 24.8998 19.5019 25.7221 19.8425C26.5443 20.1831 27.2471 20.7599 27.7416 21.4999C28.2361 22.24 28.5 23.11 28.5 24C28.5 25.1935 28.0259 26.3381 27.182 27.182C26.3381 28.0259 25.1935 28.5 24 28.5ZM33 3.75H15C12.0174 3.75347 9.15792 4.93985 7.04889 7.04889C4.93985 9.15792 3.75347 12.0174 3.75 15V33C3.75347 35.9826 4.93985 38.8421 7.04889 40.9511C9.15792 43.0601 12.0174 44.2465 15 44.25H33C35.9826 44.2465 38.8421 43.0601 40.9511 40.9511C43.0601 38.8421 44.2465 35.9826 44.25 33V15C44.2465 12.0174 43.0601 9.15792 40.9511 7.04889C38.8421 4.93985 35.9826 3.75347 33 3.75ZM39.75 33C39.75 34.7902 39.0388 36.5071 37.773 37.773C36.5071 39.0388 34.7902 39.75 33 39.75H15C13.2098 39.75 11.4929 39.0388 10.227 37.773C8.96116 36.5071 8.25 34.7902 8.25 33V15C8.25 13.2098 8.96116 11.4929 10.227 10.227C11.4929 8.96116 13.2098 8.25 15 8.25H33C34.7902 8.25 36.5071 8.96116 37.773 10.227C39.0388 11.4929 39.75 13.2098 39.75 15V33ZM36.75 14.25C36.75 14.8433 36.5741 15.4234 36.2444 15.9167C35.9148 16.4101 35.4462 16.7946 34.8981 17.0216C34.3499 17.2487 33.7467 17.3081 33.1647 17.1924C32.5828 17.0766 32.0482 16.7909 31.6287 16.3713C31.2091 15.9518 30.9234 15.4172 30.8076 14.8353C30.6919 14.2533 30.7513 13.6501 30.9784 13.1019C31.2054 12.5538 31.5899 12.0852 32.0833 11.7556C32.5766 11.4259 33.1567 11.25 33.75 11.25C34.5456 11.25 35.3087 11.5661 35.8713 12.1287C36.4339 12.6913 36.75 13.4544 36.75 14.25Z" fill="#F3F4F6"/>
</svg>
