<svg width="24" height="24" viewBox="0 0 24 24" fill="none" xmlns="http://www.w3.org/2000/svg">
<path d="M20.5978 11.0043C20.5579 10.826 20.4752 10.6601 20.3567 10.5209C20.2383 10.3817 20.0878 10.2735 19.9181 10.2056L15.12 8.28651L16.1128 1.66683C16.1492 1.42912 16.1086 1.18599 15.9967 0.9731C15.8849 0.76021 15.7077 0.588763 15.4913 0.483908C15.2749 0.379053 15.0306 0.346308 14.7942 0.390476C14.5578 0.434644 14.3418 0.553401 14.1778 0.729327L3.67781 11.9793C3.55299 12.113 3.46265 12.2751 3.4146 12.4515C3.36654 12.628 3.36223 12.8135 3.40202 12.992C3.44182 13.1705 3.52453 13.3365 3.643 13.4759C3.76146 13.6152 3.9121 13.7235 4.08187 13.7915L8.87999 15.7106L7.88718 22.3331C7.85074 22.5708 7.89142 22.8139 8.00327 23.0268C8.11512 23.2397 8.29225 23.4111 8.50867 23.516C8.72509 23.6208 8.96942 23.6536 9.20581 23.6094C9.4422 23.5653 9.65822 23.4465 9.82218 23.2706L20.3222 12.0206C20.4475 11.8865 20.5382 11.7238 20.5862 11.5467C20.6343 11.3696 20.6382 11.1834 20.5978 11.0043ZM10.65 19.0828L11.2378 15.1668C11.2754 14.9162 11.2272 14.6602 11.1011 14.4404C10.975 14.2205 10.7784 14.0497 10.5431 13.9556L6.44437 12.3159L13.35 4.91714L12.7622 8.83308C12.7246 9.08371 12.7728 9.33968 12.8989 9.55952C13.025 9.77936 13.2216 9.95019 13.4569 10.0443L17.5556 11.684L10.65 19.0828Z" fill="#1E1E1E"/>
</svg>
