<svg width="48" height="48" viewBox="0 0 48 48" fill="none" xmlns="http://www.w3.org/2000/svg">
<path d="M40.5 3.75H7.5C6.50544 3.75 5.55161 4.14509 4.84835 4.84835C4.14509 5.55161 3.75 6.50544 3.75 7.5V40.5C3.75 41.4946 4.14509 42.4484 4.84835 43.1516C5.55161 43.8549 6.50544 44.25 7.5 44.25H40.5C41.4946 44.25 42.4484 43.8549 43.1516 43.1516C43.8549 42.4484 44.25 41.4946 44.25 40.5V7.5C44.25 6.50544 43.8549 5.55161 43.1516 4.84835C42.4484 4.14509 41.4946 3.75 40.5 3.75ZM39.75 39.75H8.25V8.25H39.75V39.75ZM21 33V22.5C21.0004 22.0324 21.1465 21.5766 21.418 21.1959C21.6895 20.8151 22.0728 20.5284 22.5147 20.3756C22.9566 20.2228 23.4352 20.2115 23.8838 20.3432C24.3325 20.475 24.7289 20.7432 25.0181 21.1106C26.1609 20.5116 27.439 20.2176 28.7287 20.2569C30.0184 20.2962 31.2761 20.6676 32.3803 21.3352C33.4845 22.0028 34.3978 22.9439 35.0319 24.0676C35.666 25.1914 35.9994 26.4597 36 27.75V33C36 33.5967 35.7629 34.169 35.341 34.591C34.919 35.0129 34.3467 35.25 33.75 35.25C33.1533 35.25 32.581 35.0129 32.159 34.591C31.7371 34.169 31.5 33.5967 31.5 33V27.75C31.5 26.9544 31.1839 26.1913 30.6213 25.6287C30.0587 25.0661 29.2956 24.75 28.5 24.75C27.7044 24.75 26.9413 25.0661 26.3787 25.6287C25.8161 26.1913 25.5 26.9544 25.5 27.75V33C25.5 33.5967 25.2629 34.169 24.841 34.591C24.419 35.0129 23.8467 35.25 23.25 35.25C22.6533 35.25 22.081 35.0129 21.659 34.591C21.2371 34.169 21 33.5967 21 33ZM18 22.5V33C18 33.5967 17.7629 34.169 17.341 34.591C16.919 35.0129 16.3467 35.25 15.75 35.25C15.1533 35.25 14.581 35.0129 14.159 34.591C13.7371 34.169 13.5 33.5967 13.5 33V22.5C13.5 21.9033 13.7371 21.331 14.159 20.909C14.581 20.4871 15.1533 20.25 15.75 20.25C16.3467 20.25 16.919 20.4871 17.341 20.909C17.7629 21.331 18 21.9033 18 22.5ZM12.75 15C12.75 14.4067 12.9259 13.8266 13.2556 13.3333C13.5852 12.8399 14.0538 12.4554 14.6019 12.2284C15.1501 12.0013 15.7533 11.9419 16.3353 12.0576C16.9172 12.1734 17.4518 12.4591 17.8713 12.8787C18.2909 13.2982 18.5766 13.8328 18.6924 14.4147C18.8081 14.9967 18.7487 15.5999 18.5216 16.1481C18.2946 16.6962 17.9101 17.1648 17.4167 17.4944C16.9234 17.8241 16.3433 18 15.75 18C14.9544 18 14.1913 17.6839 13.6287 17.1213C13.0661 16.5587 12.75 15.7956 12.75 15Z" fill="#F3F4F6"/>
</svg>
