<svg width="48" height="48" viewBox="0 0 48 48" fill="none" xmlns="http://www.w3.org/2000/svg">
<path d="M31.9669 22.1081L21.4669 15.3581C21.127 15.1396 20.7346 15.0166 20.3309 15.0021C19.9271 14.9876 19.5269 15.0821 19.1722 15.2756C18.8176 15.4691 18.5215 15.7546 18.3153 16.102C18.109 16.4494 18.0001 16.846 18 17.25V30.75C18.0001 31.154 18.109 31.5506 18.3153 31.898C18.5215 32.2454 18.8176 32.5309 19.1722 32.7244C19.5269 32.9179 19.9271 33.0124 20.3309 32.9979C20.7346 32.9834 21.127 32.8604 21.4669 32.6419L31.9669 25.8919C32.2835 25.6881 32.5438 25.4081 32.7242 25.0775C32.9045 24.747 32.999 24.3765 32.999 24C32.999 23.6235 32.9045 23.253 32.7242 22.9225C32.5438 22.5919 32.2835 22.3119 31.9669 22.1081ZM22.5 26.625V21.375L26.5894 24L22.5 26.625ZM44.6644 12.8438C44.4573 12.0369 44.0615 11.2908 43.5096 10.6669C42.9577 10.043 42.2655 9.55907 41.49 9.255C34.95 6.73313 24.6169 6.75 24 6.75C23.3831 6.75 13.05 6.73313 6.51 9.25875C5.7345 9.56282 5.0423 10.0467 4.49042 10.6707C3.93853 11.2946 3.54274 12.0407 3.33563 12.8475C2.84063 14.76 2.25 18.2475 2.25 24C2.25 29.7525 2.84063 33.24 3.33563 35.1525C3.54274 35.9593 3.93853 36.7054 4.49042 37.3293C5.0423 37.9533 5.7345 38.4372 6.51 38.7413C12.7894 41.1656 22.5675 41.25 23.8819 41.25H24.1181C25.4306 41.25 35.2106 41.1656 41.49 38.7413C42.2655 38.4372 42.9577 37.9533 43.5096 37.3293C44.0615 36.7054 44.4573 35.9593 44.6644 35.1525C45.1594 33.24 45.75 29.7525 45.75 24C45.75 18.2475 45.1594 14.76 44.6644 12.8475V12.8438ZM40.3125 34.0238C40.2854 34.1388 40.2316 34.2458 40.1554 34.336C40.0791 34.4263 39.9826 34.4972 39.8737 34.5431C34.2713 36.705 24.8006 36.75 24.06 36.75H23.9869C23.8875 36.75 13.9294 36.7819 8.13188 34.5431C8.02195 34.498 7.92434 34.4273 7.84708 34.337C7.76982 34.2467 7.71512 34.1393 7.6875 34.0238C7.335 32.6663 6.75 29.5575 6.75 24C6.75 18.4425 7.34062 15.3338 7.6875 13.9763C7.71455 13.8612 7.7684 13.7542 7.84464 13.664C7.92089 13.5737 8.01738 13.5028 8.12625 13.4569C13.9294 11.2181 23.8856 11.25 23.985 11.25H24.0131C24.1144 11.25 34.0706 11.2181 39.8681 13.4569C39.978 13.502 40.0757 13.5727 40.1529 13.663C40.2302 13.7533 40.2849 13.8607 40.3125 13.9763C40.665 15.3338 41.25 18.4425 41.25 24C41.25 29.5575 40.6594 32.6663 40.3125 34.0238Z" fill="#F3F4F6"/>
</svg>
