<svg width="105" height="105" viewBox="0 0 105 105" fill="none" xmlns="http://www.w3.org/2000/svg">
<rect width="105" height="105" rx="8" fill="#F3F4F6"/>
<path d="M78 21.75H71.75V20.5C71.75 19.5054 71.3549 18.5516 70.6516 17.8483C69.9484 17.1451 68.9946 16.75 68 16.75C67.0054 16.75 66.0516 17.1451 65.3484 17.8483C64.6451 18.5516 64.25 19.5054 64.25 20.5V21.75H41.75V20.5C41.75 19.5054 41.3549 18.5516 40.6517 17.8483C39.9484 17.1451 38.9946 16.75 38 16.75C37.0054 16.75 36.0516 17.1451 35.3483 17.8483C34.6451 18.5516 34.25 19.5054 34.25 20.5V21.75H28C26.3424 21.75 24.7527 22.4085 23.5806 23.5806C22.4085 24.7527 21.75 26.3424 21.75 28V78C21.75 79.6576 22.4085 81.2473 23.5806 82.4194C24.7527 83.5915 26.3424 84.25 28 84.25H78C79.6576 84.25 81.2473 83.5915 82.4194 82.4194C83.5915 81.2473 84.25 79.6576 84.25 78V28C84.25 26.3424 83.5915 24.7527 82.4194 23.5806C81.2473 22.4085 79.6576 21.75 78 21.75ZM34.25 29.25C34.25 30.2446 34.6451 31.1984 35.3483 31.9017C36.0516 32.6049 37.0054 33 38 33C38.9946 33 39.9484 32.6049 40.6517 31.9017C41.3549 31.1984 41.75 30.2446 41.75 29.25H64.25C64.25 30.2446 64.6451 31.1984 65.3484 31.9017C66.0516 32.6049 67.0054 33 68 33C68.9946 33 69.9484 32.6049 70.6516 31.9017C71.3549 31.1984 71.75 30.2446 71.75 29.25H76.75V36.75H29.25V29.25H34.25ZM29.25 76.75V44.25H76.75V76.75H29.25ZM66.9031 50.3469C67.2527 50.6953 67.5301 51.1092 67.7194 51.5651C67.9087 52.0209 68.0061 52.5096 68.0061 53.0031C68.0061 53.4967 67.9087 53.9854 67.7194 54.4412C67.5301 54.897 67.2527 55.311 66.9031 55.6594L51.9031 70.6594C51.5547 71.009 51.1408 71.2864 50.6849 71.4756C50.2291 71.6649 49.7404 71.7623 49.2469 71.7623C48.7533 71.7623 48.2646 71.6649 47.8088 71.4756C47.353 71.2864 46.939 71.009 46.5906 70.6594L39.0906 63.1594C38.3861 62.4549 37.9904 61.4994 37.9904 60.5031C37.9904 59.5068 38.3861 58.5514 39.0906 57.8469C39.7951 57.1424 40.7506 56.7466 41.7469 56.7466C42.7432 56.7466 43.6986 57.1424 44.4031 57.8469L49.25 62.6875L61.5969 50.3375C61.9458 49.9895 62.3598 49.7136 62.8154 49.5257C63.271 49.3378 63.7591 49.2415 64.2519 49.2424C64.7448 49.2432 65.2326 49.3412 65.6875 49.5308C66.1424 49.7203 66.5555 49.9976 66.9031 50.3469Z" fill="#0A66C2"/>
</svg>
