<svg width="105" height="105" viewBox="0 0 105 105" fill="none" xmlns="http://www.w3.org/2000/svg">
<rect width="105" height="105" rx="8" fill="#F3F4F6"/>
<path d="M78 19.25H35.5C32.5163 19.25 29.6548 20.4353 27.545 22.545C25.4353 24.6548 24.25 27.5163 24.25 30.5V83C24.25 83.9946 24.6451 84.9484 25.3483 85.6516C26.0516 86.3549 27.0054 86.75 28 86.75H73C73.9946 86.75 74.9484 86.3549 75.6516 85.6516C76.3549 84.9484 76.75 83.9946 76.75 83C76.75 82.0054 76.3549 81.0516 75.6516 80.3484C74.9484 79.6451 73.9946 79.25 73 79.25H31.75V78C31.75 77.0054 32.1451 76.0516 32.8483 75.3484C33.5516 74.6451 34.5054 74.25 35.5 74.25H78C78.9946 74.25 79.9484 73.8549 80.6516 73.1516C81.3549 72.4484 81.75 71.4946 81.75 70.5V23C81.75 22.0054 81.3549 21.0516 80.6516 20.3483C79.9484 19.6451 78.9946 19.25 78 19.25ZM50.5 26.75H61.75V45.1875L58.4656 42.5594C57.8005 42.0269 56.9739 41.7367 56.1219 41.7367C55.2699 41.7367 54.4432 42.0269 53.7781 42.5594L50.5 45.1875V26.75ZM74.25 66.75H35.5C34.2223 66.7476 32.9537 66.9654 31.75 67.3937V30.5C31.75 29.5054 32.1451 28.5516 32.8483 27.8483C33.5516 27.1451 34.5054 26.75 35.5 26.75H43V53C42.9999 53.7066 43.1993 54.3988 43.5754 54.9969C43.9515 55.5951 44.489 56.0748 45.1259 56.3808C45.7627 56.6868 46.4731 56.8067 47.1751 56.7266C47.8771 56.6465 48.5422 56.3697 49.0938 55.9281L56.1219 50.3031L63.1562 55.9281C63.7078 56.3697 64.3729 56.6465 65.0749 56.7266C65.7769 56.8067 66.4873 56.6868 67.1241 56.3808C67.761 56.0748 68.2985 55.5951 68.6746 54.9969C69.0507 54.3988 69.2501 53.7066 69.25 53V26.75H74.25V66.75Z" fill="#0A66C2"/>
</svg>
