<svg width="105" height="105" viewBox="0 0 105 105" fill="none" xmlns="http://www.w3.org/2000/svg">
<rect width="105" height="105" rx="8" fill="#F3F4F6"/>
<path d="M65.9906 27.4094C66.2982 26.4638 66.9688 25.6791 67.8549 25.2279C68.7409 24.7767 69.77 24.6958 70.7156 25.0031L71.75 25.3375V24.25C71.75 23.2554 72.1451 22.3016 72.8483 21.5984C73.5516 20.8951 74.5054 20.5 75.5 20.5C76.4946 20.5 77.4484 20.8951 78.1516 21.5984C78.8549 22.3016 79.25 23.2554 79.25 24.25V25.3375L80.2844 25.0031C80.7553 24.8405 81.2539 24.7733 81.751 24.8055C82.2482 24.8377 82.734 24.9686 83.18 25.1906C83.626 25.4127 84.0232 25.7213 84.3486 26.0986C84.674 26.4759 84.9209 26.9143 85.0749 27.3881C85.229 27.8618 85.2871 28.3616 85.2458 28.8581C85.2046 29.3546 85.0648 29.8379 84.8347 30.2798C84.6046 30.7216 84.2887 31.1132 83.9056 31.4317C83.5224 31.7501 83.0796 31.989 82.6031 32.1344L81.5687 32.4719L82.1937 33.3531C82.4994 33.7503 82.7224 34.2047 82.8495 34.6896C82.9765 35.1744 83.0051 35.6798 82.9335 36.1758C82.862 36.6719 82.6917 37.1486 82.4327 37.5777C82.1738 38.0068 81.8314 38.3797 81.4259 38.6743C81.0204 38.9688 80.56 39.1791 80.0719 39.2927C79.5837 39.4063 79.0777 39.4209 78.5838 39.3356C78.0899 39.2503 77.6182 39.0669 77.1964 38.7961C76.7746 38.5254 76.4113 38.1729 76.1281 37.7594L75.5 36.8813L74.875 37.7594C74.5918 38.1729 74.2285 38.5254 73.8067 38.7961C73.3849 39.0669 72.9132 39.2503 72.4193 39.3356C71.9254 39.4209 71.4194 39.4063 70.9313 39.2927C70.4431 39.1791 69.9827 38.9688 69.5772 38.6743C69.1717 38.3797 68.8293 38.0068 68.5704 37.5777C68.3114 37.1486 68.1412 36.6719 68.0696 36.1758C67.998 35.6798 68.0266 35.1744 68.1537 34.6896C68.2807 34.2047 68.5037 33.7503 68.8094 33.3531L69.4344 32.4719L68.4 32.1344C67.9315 31.9824 67.4976 31.7396 67.1229 31.4198C66.7483 31.1001 66.4403 30.7097 66.2166 30.2709C65.9928 29.8322 65.8577 29.3536 65.819 28.8626C65.7802 28.3716 65.8385 27.8778 65.9906 27.4094ZM86.75 53C86.75 59.6751 84.7706 66.2003 81.0621 71.7505C77.3536 77.3007 72.0826 81.6265 65.9156 84.1809C59.7486 86.7354 52.9626 87.4038 46.4157 86.1015C39.8688 84.7992 33.8552 81.5849 29.1351 76.8649C24.4151 72.1448 21.2007 66.1312 19.8985 59.5843C18.5962 53.0374 19.2646 46.2514 21.8191 40.0844C24.3735 33.9174 28.6993 28.6464 34.2495 24.9379C39.7997 21.2294 46.3249 19.25 53 19.25C54.8846 19.2496 56.7661 19.4053 58.625 19.7156C59.6059 19.8814 60.4807 20.43 61.0571 21.2408C61.6335 22.0516 61.8642 23.0582 61.6984 24.0391C61.5327 25.02 60.984 25.8948 60.1732 26.4712C59.3624 27.0476 58.3559 27.2783 57.375 27.1125C55.9292 26.8712 54.4658 26.7499 53 26.75C48.0722 26.7467 43.2432 28.1315 39.066 30.7458C34.8889 33.36 31.5326 37.0981 29.3817 41.5317C27.2308 45.9652 26.3723 50.915 26.9044 55.814C27.4366 60.7129 29.3379 65.3629 32.3906 69.2313C34.8212 66.1398 37.9193 63.6378 41.4531 61.9125C39.201 59.6318 37.6736 56.7361 37.0631 53.5895C36.4526 50.4429 36.7863 47.1861 38.0222 44.2287C39.2581 41.2713 41.341 38.7455 44.0089 36.9689C46.6767 35.1924 49.8104 34.2445 53.0156 34.2445C56.2209 34.2445 59.3545 35.1924 62.0224 36.9689C64.6902 38.7455 66.7731 41.2713 68.009 44.2287C69.2449 47.1861 69.5786 50.4429 68.9682 53.5895C68.3577 56.7361 66.8303 59.6318 64.5781 61.9125C68.112 63.6378 71.21 66.1398 73.6406 69.2313C77.2867 64.6079 79.2634 58.8881 79.25 53C79.2498 51.5342 79.1286 50.0709 78.8875 48.625C78.7217 47.6441 78.9524 46.6376 79.5288 45.8268C80.1052 45.016 80.98 44.4673 81.9609 44.3016C82.9418 44.1358 83.9484 44.3665 84.7592 44.9429C85.57 45.5192 86.1186 46.3941 86.2844 47.375C86.5949 49.2339 86.7507 51.1153 86.75 53ZM53 59.25C54.7306 59.25 56.4223 58.7368 57.8612 57.7754C59.3002 56.8139 60.4217 55.4473 61.0839 53.8485C61.7462 52.2496 61.9195 50.4903 61.5819 48.793C61.2442 47.0956 60.4109 45.5365 59.1872 44.3128C57.9635 43.0891 56.4044 42.2557 54.707 41.9181C53.0097 41.5805 51.2504 41.7538 49.6515 42.4161C48.0527 43.0783 46.6861 44.1998 45.7246 45.6388C44.7632 47.0777 44.25 48.7694 44.25 50.5C44.25 52.8206 45.1719 55.0462 46.8128 56.6872C48.4538 58.3281 50.6794 59.25 53 59.25ZM53 79.25C58.4232 79.2539 63.713 77.5686 68.1344 74.4281C66.3935 72.0478 64.1157 70.1117 61.4861 68.777C58.8564 67.4423 55.949 66.7467 53 66.7467C50.051 66.7467 47.1436 67.4423 44.5139 68.777C41.8843 70.1117 39.6065 72.0478 37.8656 74.4281C42.287 77.5686 47.5768 79.2539 53 79.25Z" fill="#0A66C2"/>
</svg>
